Coordinates
version=1
nRows=8
nColumns=28
inDegrees=yes

Units are S.I. units (second, meters, Newtons, ...)
Angles are in degrees.

endheader
time	pelvis_tilt	pelvis_list	pelvis_rotation	pelvis_tx	pelvis_ty	pelvis_tz	hip_flexion_r	hip_adduction_r	hip_rotation_r	knee_angle_r	ankle_angle_r	subtalar_angle_r	mtp_angle_r	hip_flexion_l	hip_adduction_l	hip_rotation_l	knee_angle_l	socket_flexion	socket_adduction	socket_rotation	socket_tx	socket_ty	socket_tz	foot_flex	lumbar_extension	lumbar_bending	lumbar_rotation
      0.62500000	     -0.66987992	     -4.82342356	      7.24815613	     -0.01068703	      0.98827893	      0.26095827	     24.13558823	      4.55764989	     -8.08266339	     -4.41613823	     17.40429217	    -18.42150518	    -18.27301877	    -29.41930593	     -7.76955546	     17.38583127	      6.23677705	      4.39738407	      0.00000000	      0.00000000	      0.00000000	      0.00000000	      0.00000000	      8.00806028	     -8.92163685	      5.31060848	     -5.04129312
      0.62916667	     -0.76762751	     -4.79897918	      7.22031632	     -0.01055860	      0.98813118	      0.26098355	     24.35729179	      4.49357276	     -8.41570734	     -4.65551629	     17.13574741	    -18.30615204	    -16.99630391	    -29.29908801	     -7.70171835	     17.30498733	      6.15976287	      4.36677816	      0.00000000	      0.00000000	      0.00000000	      0.00000000	      0.00000000	      8.01774019	     -8.79334137	      5.27997533	     -5.34086149
      0.63333333	     -0.71682973	     -4.87004581	      7.37307437	     -0.00409606	      0.98728913	      0.26100252	     24.43975993	      4.57655995	     -8.14578356	     -5.32494989	     16.88353676	    -18.29305735	    -16.97952849	    -29.54982315	     -7.84732233	     17.42229686	      5.93403159	      4.45821089	      0.00000000	      0.00000000	      0.00000000	      0.00000000	      0.00000000	      7.96982520	     -8.76757921	      5.48793006	     -5.34920759
      0.63750000	     -0.62031271	     -4.94882631	      7.37369321	      0.00235232	      0.98648556	      0.26131406	     24.62710460	      4.71481013	     -8.01915274	     -6.30183981	     16.43560386	    -18.38156956	    -16.92705464	    -29.86727494	     -7.92004836	     17.31177849	      5.68611400	      4.55174845	      0.00000000	      0.00000000	      0.00000000	      0.00000000	      0.00000000	      7.89542155	     -8.83441853	      5.68438388	     -5.41347017
      0.64166667	     -0.49315603	     -5.00874089	      7.27384426	      0.00894240	      0.98571828	      0.26167865	     24.81790192	      4.86019268	     -7.92572676	     -7.36717243	     15.88479166	    -18.50729283	    -16.72903842	    -30.24035116	     -7.88966992	     16.98792305	      5.43662423	      4.67671233	      0.00000000	      0.00000000	      0.00000000	      0.00000000	      0.00000000	      7.80887407	     -8.90854713	      5.85949748	     -5.45588611
      0.64583333	     -0.28175651	     -5.07323105	      7.19207802	      0.01560449	      0.98502126	      0.26202487	     24.81716413	      5.01277762	     -7.80496083	     -8.16525162	     13.29333842	    -19.23790527	     -8.15372960	    -30.73853383	     -7.90474239	     16.74203013	      5.28945159	      4.87074374	      0.00000000	      0.00000000	      0.00000000	      0.00000000	      0.00000000	      7.70747371	     -9.08618809	      6.02650916	     -5.21535848
      0.65000000	     -0.18690832	     -5.17222902	      7.15338819	      0.02224417	      0.98436235	      0.26233884	     24.97648505	      5.17409334	     -7.68374553	     -9.14088413	     12.84115016	    -19.23149921	     -8.15916515	    -31.01875942	     -7.95313718	     16.56985772	      4.97234022	      4.99218467	      0.00000000	      0.00000000	      0.00000000	      0.00000000	      0.00000000	      7.57803131	     -9.11448200	      6.24524815	     -5.24043261
      0.65416667	     -0.07179679	     -5.26333661	      7.03849502	      0.02888887	      0.98376103	      0.26278123	     25.12319690	      5.35944395	     -7.50507924	    -10.14457971	     12.36688090	    -19.20564695	     -8.02433478	    -31.31552768	     -7.94856515	     16.32066925	      4.61746939	      5.10947847	      0.00000000	      0.00000000	      0.00000000	      0.00000000	      0.00000000	      7.43979662	     -9.17366204	      6.44707629	     -5.16450990
